<?xml version="1.0" encoding="UTF-8"?>
<!DOCTYPE svg  PUBLIC '-//W3C//DTD SVG 1.1//EN'  'http://www.w3.org/Graphics/SVG/1.1/DTD/svg11.dtd'>
<svg width="470.71px" height="470.71px" enable-background="new 0 0 470.713 470.714" version="1.1" viewBox="0 0 470.713 470.714" xml:space="preserve" xmlns="http://www.w3.org/2000/svg">
		<path d="m96.01 133.46c3.884 2.676 8.163 4.332 12.619 5.292-5.324 99.039-15.803 202.44 20.416 296.98 1.742 4.545 4.938 7.389 8.604 8.846 1.26 1.762 3.052 3.326 5.637 4.479 64.729 28.746 133.52 27.487 199.89 4.459 8.674-3.012 11.314-11.243 9.735-18.256 12.604-95.928 24.562-194.69 14.67-291.43 7.83-1.725 15.147-5.027 20.586-11.075 10.745-11.959 8.679-27.345 3.387-41.068 0.011-3.816-1.787-7.467-5.87-9.973-1.62-1.254-3.544-2.127-5.596-2.59-29.727-12.703-61.367-19.342-93.734-22.427 0.569-2.892 0.32-6.058-1.081-9.308-10.107-23.306-30.231-50.783-59.17-47.038-27.863 3.603-41.365 30.793-47.007 55.726-18.611 0.978-37.039 2.207-55.035 3.245-0.125 5e-3 -0.236 0.048-0.36 0.058-0.854-0.109-1.722-0.163-2.61-0.058-19.291 2.267-35.53 11.491-43.975 29.609-1.123 2.407-1.678 4.948-1.737 7.439-0.749 2.455-0.8 5.278 0.239 8.444 3.912 11.868 10.036 21.504 20.39 28.648zm228.1 295.09c-54.888 16.904-112.16 18.712-165.84-5.129-0.815-0.36-1.623-0.579-2.422-0.802-32.966-90.754-22.635-189.45-17.514-284.18 65.534-4.644 131.55-5.657 196.81 2.567 0.771 0.812 1.655 1.518 2.646 2.138 9.785 94.689-1.381 191.38-13.68 285.4zm-95.443-398.85c12.937-1.676 22.006 13.327 27.591 25.111-15.449-0.536-30.97-0.447-46.445 0 3.14-11.385 8.637-23.791 18.854-25.111zm-117.82 63.033c-1.826 1.579 4.918-2.508 2.775-1.617 1.498-0.625 3.075-1.046 4.639-1.478-0.358 0.099 4.903-0.879 2.833-0.64 0.183-0.021 0.355-0.074 0.536-0.1 0.785 0.074 1.567 0.152 2.43 0.1 77.348-4.481 167.34-15.376 240.8 15.658 0.233 0.69 0.533 1.356 0.746 2.059 0.295 1.018 0.538 2.054 0.746 3.093 0.016 0.23 0.031 0.475 0.057 0.833 0.02 0.536-0.021 1.077-0.041 1.612-0.01 0.045-0.035 0.15-0.051 0.203-0.314-0.053-2.468 1.498-1.59 1.331-1.63 0.604-3.326 1.03-5.017 1.409-0.808 0.183-1.874 0.312-3.082 0.406-1.574-1.141-3.529-1.993-6.038-2.336-75.291-10.336-150.9-9.422-226.53-3.499-1.364 0.109-2.595 0.406-3.761 0.779-7.373-0.104-12.075-3.682-15.157-11.263 1.424-2.391 2.917-4.138 5.705-6.55z"/>
		<path d="m186.39 186.94c-0.178-19.128-29.853-19.144-29.681 0 0.437 47.81 5.949 95.075 11.873 142.45 2.338 18.732 32.044 18.961 29.681 0-5.928-47.383-11.436-94.644-11.873-142.45z"/>
		<path d="m248.71 183.97c-1.026-19.032-30.709-19.136-29.681 0 2.829 52.483 4.723 105.01 10.39 157.29 2.039 18.819 31.738 19.017 29.681 0-5.668-52.283-7.566-104.81-10.39-157.29z"/>
		<path d="m284.86 186.43c7.993 58.711 4.169 118.06 3.92 177.09-0.081 19.139 29.595 19.134 29.681 0 0.26-61.896 3.393-123.44-4.98-184.98-2.576-18.885-31.17-10.81-28.621 7.894z"/>
</svg>